<?xml version="1.0" encoding="utf-8"?>
<!-- Generator: Adobe Illustrator 16.0.0, SVG Export Plug-In . SVG Version: 6.00 Build 0)  -->
<!DOCTYPE svg PUBLIC "-//W3C//DTD SVG 1.1//EN" "http://www.w3.org/Graphics/SVG/1.1/DTD/svg11.dtd">
<svg version="1.1" id="Capa_1" xmlns="http://www.w3.org/2000/svg" xmlns:xlink="http://www.w3.org/1999/xlink" x="0px" y="0px"
	 width="522.468px" height="522.469px" viewBox="0 0 522.468 522.469" enable-background="new 0 0 522.468 522.469"
	 xml:space="preserve">
<g>
	<g>
		<path fill="#FFAF2E" stroke="#FFAF2E" stroke-width="15" stroke-miterlimit="10" d="M321.949,86.597l-16.971-4.652
			c-2.184-0.729-4.335-0.5-6.428,0.685c-2.099,1.186-3.517,2.965-4.245,5.336L192.24,441.226c-0.728,2.372-0.5,4.608,0.686,6.703
			c1.186,2.099,2.961,3.513,5.336,4.241l16.965,4.652c2.188,0.736,4.333,0.505,6.431-0.682c2.099-1.191,3.514-2.965,4.241-5.331
			L327.967,97.544c0.726-2.371,0.5-4.608-0.687-6.708C326.093,88.737,324.319,87.324,321.949,86.597z"/>
		<path fill="#FFAF2E" stroke="#FFAF2E" stroke-width="15" stroke-miterlimit="10" d="M168.99,155.556
			c0-2.37-0.914-4.471-2.737-6.293L152.57,135.58c-1.825-1.824-3.923-2.738-6.294-2.738s-4.471,0.915-6.294,2.738L12.471,263.091
			c-1.827,1.824-2.737,3.923-2.737,6.294s0.914,4.469,2.737,6.293l127.51,127.511c1.823,1.827,3.919,2.736,6.294,2.736
			s4.471-0.912,6.294-2.736l13.683-13.675c1.823-1.823,2.737-3.922,2.737-6.296c0-2.368-0.914-4.469-2.737-6.289L58.715,269.385
			l107.538-107.534C168.08,160.027,168.99,157.927,168.99,155.556z"/>
		<path fill="#FFAF2E" stroke="#FFAF2E" stroke-width="15" stroke-miterlimit="10" d="M507.738,263.088L380.224,135.577
			c-1.822-1.823-3.923-2.738-6.291-2.738c-2.374,0-4.466,0.915-6.295,2.738l-13.678,13.681c-1.822,1.824-2.733,3.92-2.733,6.294
			c0,2.374,0.908,4.471,2.733,6.293L461.5,269.384L353.96,376.928c-1.822,1.82-2.733,3.923-2.733,6.289
			c0,2.376,0.908,4.473,2.733,6.296l13.678,13.675c1.829,1.827,3.923,2.736,6.295,2.736c2.37,0,4.469-0.912,6.291-2.736
			l127.514-127.509c1.824-1.823,2.735-3.926,2.735-6.297C510.473,267.01,509.562,264.911,507.738,263.088z"/>
	</g>
</g>
</svg>
